<?xml version="1.0" encoding="UTF-8"?>
<svg id="Rentegning" xmlns="http://www.w3.org/2000/svg" viewBox="0 0 595.28 842.26">
  <rect y="547.96" width="595.28" height="294.3" style="fill: #726658;"/>
  <ellipse cx="297.64" cy="655.91" rx="174.84" ry="73.76" style="fill: #fbb040; opacity: .2;"/>
  <path d="M126.54,278.06l26.75,1.61s25.25.39,35.25,18.39,19,93,19,93c0,0,20.67,82.49,16.69,98.31,0,0,.51,7.15-7.69,13.18,0,0,8.2,54.96-25.98,141.55,0,0-20.4,24.13-38.4,1.13,0,0-7.79-34.67-9.79-43.67l-15.64-1.01-6.16,46.79s-24.89,24.99-44.47-10.4c0,0-26.58-36.04-32.58-137.04,0,0-15-2.85-12-20.85,0,0,8-58,28-108l17.68-76.83s7.32-13.17,24.32-16.17,25,0,25,0Z" style="fill: #754c29;"/>
  <path d="M165.71,272.05c-.09,8.61,7.9,15.59,17.65,15.59s17.65-6.98,17.65-15.59-7.9-15.53-17.65-15.59c-9.44-.07-17.56,6.96-17.65,15.59Z" style="fill: #754c29;"/>
  <path d="M62.14,269.96c-.09,8.61,7.9,15.59,17.65,15.59s17.65-6.98,17.65-15.59-7.9-15.53-17.65-15.59c-9.44-.07-17.56,6.96-17.65,15.59Z" style="fill: #754c29;"/>
  <path d="M69.53,272.38c.98,4.36,6.45,6.78,12.11,5.44s9.4-5.96,8.37-10.31-6.45-6.75-12.11-5.44c-5.49,1.27-9.35,5.94-8.37,10.31Z" style="fill: #c49a6c;"/>
  <path d="M173.77,267.72c-1.88,4.05.98,9.31,6.28,11.7s11.08,1.01,12.92-3.06-.99-9.28-6.28-11.7c-5.12-2.34-11.03-1-12.92,3.06Z" style="fill: #c49a6c;"/>
  <ellipse cx="128.61" cy="488.72" rx="59.94" ry="80.08" style="fill: #c49a6c;"/>
  <ellipse cx="122.16" cy="358.41" rx="27.48" ry="21.01" transform="translate(-252.22 415.17) rotate(-79.8)" style="fill: #c49a6c;"/>
  <path d="M127.94,337.51s8.05,0,7.22,7.51c0,0-.63,6.05-8.13,15.85,0,0-5.42,6.26-10.43-1.04,0,0-3.96-4.8-4.59-17.31,0,0,1.25-6.26,7.92-5h8.01Z" style="fill: #231f20;"/>
  <line x1="120.35" y1="376.5" x2="121.18" y2="363.36" style="fill: none; stroke: #231f20; stroke-miterlimit: 10;"/>
  <path d="M104.92,360.03s11.26,35.24,31.7,4.17" style="fill: none; stroke: #231f20; stroke-miterlimit: 10;"/>
  <path d="M110.12,303.25c2.22,3.98,1.6,8.97-1.56,12.26-2.24-3.98-1.58-8.96,1.56-12.26h0Z" style="fill: #231f20;"/>
  <path d="M145.44,303.94c.83.96,1.26,1.93,1.57,2.89.29.96.43,1.93.43,2.89,0,.96-.13,1.93-.43,2.89-.31.96-.74,1.93-1.57,2.89-.83-.96-1.26-1.93-1.57-2.89-.29-.96-.43-1.93-.43-2.89,0-.96.14-1.93.43-2.89.31-.96.74-1.93,1.57-2.89Z" style="fill: #231f20;"/>
  <path d="M195.17,451.82c-.11-2.21-7.53-13.29-6.62-19.22-.44-13.28,1.35-16.84,1.35-16.84,6.42-18.79,16.85-30.94,16.85-30.94l-2.24-16.1s-34.52,17.3-67.06,60.83c0,0-10.13,12.61-12.33,28.37l-2.04,50.4s-3.21,21.08,28.41,25.66h65.4s1.54-29.43-.36-31.43c-19.05,1.82-20.8-39.71-21.37-50.73Z" style="fill: #d7df23;"/>
  <path d="M60.45,452.43c9.92-8.9,3.67-28.83,3.67-28.83-.03-.46,0,0-.03-.44-.57-7.4-4.57-17.85-4.57-17.85-5.88-14.99-6.72-16.63-6.72-16.63l5.67-15.57s29.82,21.36,51.7,48.19c0,0,11.62,11.52,15.31,38.09l-2.21,53.69s-3.45,12.25-20.7,16.03c0,0-9.61,2.18-56.83-1.48l-2.18-27.47s18.14.45,16.5-15.52c0,0-.56-31.37.4-32.23Z" style="fill: #d7df23;"/>
  <path d="M216.54,502.55s-11.67,1.13-15.44-13.18c0,0-5.65-19.58-6.02-54.59" style="fill: none;"/>
  <path d="M43.54,499.91s16.01,0,16.01-9.79c0,0-1.51-36.52,1.88-39.91" style="fill: none;"/>
  <polygon points="59.89 468.53 125.24 468.53 125.29 457.59 60.02 456.81 59.89 468.53" style="fill: #e6e7e8;"/>
  <polygon points="59.92 490.02 124.61 490.02 124.51 479.29 59.89 479.75 59.92 490.02" style="fill: #e6e7e8;"/>
  <polygon points="125.02 490.02 200.68 489.37 197.89 479.23 124.51 479.29 125.02 490.02" style="fill: #e6e7e8;"/>
  <polygon points="125.98 468.57 196.24 467.97 195.46 457.79 125.47 457.85 125.98 468.57" style="fill: #e6e7e8;"/>
  <line x1="513.03" y1="261.73" x2="513.03" y2="563.47" style="fill: #231f20; stroke: #939598; stroke-linecap: round; stroke-linejoin: round; stroke-width: 11px;"/>
  <line x1="265.53" y1="263.51" x2="265.53" y2="563.47" style="fill: #231f20; stroke: #939598; stroke-linecap: round; stroke-linejoin: round; stroke-width: 11px;"/>
  <line x1="265.53" y1="285.55" x2="513.03" y2="285.55" style="fill: none; stroke: #939598; stroke-linecap: round; stroke-linejoin: round; stroke-width: 11px;"/>
  <line x1="269.29" y1="427.81" x2="513.04" y2="426.92" style="fill: none; stroke: #939598; stroke-linecap: round; stroke-linejoin: round; stroke-width: 11px;"/>
  <rect x="397.92" y="200.8" width="93.04" height="78.86" style="fill: #c2b59b; stroke: #756d5f; stroke-miterlimit: 10;"/>
  <rect x="390.32" y="176.71" width="108.25" height="24.09" rx="5.68" ry="5.68" style="fill: #c2b59b; stroke: #756d5f; stroke-miterlimit: 10;"/>
  <rect x="398.41" y="223.61" width="92.06" height="33.24" style="fill: #fff;"/>
  <rect x="289.67" y="342.54" width="93.04" height="78.86" style="fill: #c2b59b; stroke: #756d5f; stroke-miterlimit: 10;"/>
  <rect x="282.07" y="318.46" width="108.25" height="24.09" rx="5.68" ry="5.68" style="fill: #c2b59b; stroke: #756d5f; stroke-miterlimit: 10;"/>
  <rect x="290.16" y="365.35" width="92.06" height="33.24" style="fill: #fff;"/>
  <rect x="397.92" y="481.87" width="93.04" height="78.86" style="fill: #c2b59b; stroke: #756d5f; stroke-miterlimit: 10;"/>
  <rect x="390.32" y="457.79" width="108.25" height="24.09" rx="5.68" ry="5.68" style="fill: #c2b59b; stroke: #756d5f; stroke-miterlimit: 10;"/>
  <rect x="398.41" y="506.49" width="92.06" height="33.24" style="fill: #fff;"/>
  <path d="M444.37,253.24c-3.73,0-6.36-1.4-6.43-7.6s6.26-18.41,6.26-18.41c0,0,6.7,10.7,6.74,17.84s-2.85,8.17-6.58,8.17Z" style="fill: #27aae1;"/>
  <path d="M439.43,245.07h2.51s-.66,3.86,1.19,6.58c0,0-3.95-.85-3.7-6.58Z" style="fill: #fff;"/>
  <polyline points="331.86 368.88 340.44 369.06 340.44 377.55 349.39 377.55 349.39 386.31 340.62 386.31 340.53 395.07 331.77 395.07 331.77 386.31 323 386.22 323 377.45 331.77 377.64 331.86 368.88" style="fill: #ed1c24;"/>
  <polygon points="448.2 510.52 443.59 521.56 454.14 521.33 436.85 535.71 443.74 524.86 434.75 524.92 448.2 510.52" style="fill: #fbb040;"/>
  <ellipse cx="237.37" cy="98" rx="1.4" ry="2.16" style="fill: none; stroke: #6d6e71; stroke-miterlimit: 10; stroke-width: .5px;"/>
  <ellipse cx="237.37" cy="100.16" rx="1.4" ry="2.16" style="fill: none; stroke: #6d6e71; stroke-miterlimit: 10; stroke-width: .5px;"/>
  <ellipse cx="237.37" cy="102.86" rx="1.4" ry="2.16" style="fill: none; stroke: #6d6e71; stroke-miterlimit: 10; stroke-width: .5px;"/>
  <ellipse cx="237.37" cy="105.03" rx="1.4" ry="2.16" style="fill: none; stroke: #6d6e71; stroke-miterlimit: 10; stroke-width: .5px;"/>
  <ellipse cx="237.37" cy="107.73" rx="1.4" ry="2.16" style="fill: none; stroke: #6d6e71; stroke-miterlimit: 10; stroke-width: .5px;"/>
  <path d="M238.77,109.9c0,1.2-.63,2.16-1.4,2.16s-1.4-.97-1.4-2.16c0-1.2.63-2.16,1.4-2.16s1.4.97,1.4,2.16Z" style="fill: none; stroke: #6d6e71; stroke-miterlimit: 10; stroke-width: .5px;"/>
  <path d="M238.77,112.6c0,1.2-.63,2.16-1.4,2.16s-1.4-.97-1.4-2.16c0-1.2.63-2.16,1.4-2.16s1.4.97,1.4,2.16Z" style="fill: none; stroke: #6d6e71; stroke-miterlimit: 10; stroke-width: .5px;"/>
  <path d="M238.77,114.76c0,1.2-.63,2.16-1.4,2.16s-1.4-.97-1.4-2.16.63-2.16,1.4-2.16,1.4.97,1.4,2.16Z" style="fill: none; stroke: #6d6e71; stroke-miterlimit: 10; stroke-width: .5px;"/>
  <path d="M238.77,117.46c0,1.2-.63,2.16-1.4,2.16s-1.4-.97-1.4-2.16.63-2.16,1.4-2.16,1.4.97,1.4,2.16Z" style="fill: none; stroke: #6d6e71; stroke-miterlimit: 10; stroke-width: .5px;"/>
  <path d="M238.77,119.63c0,1.2-.63,2.16-1.4,2.16s-1.4-.97-1.4-2.16c0-1.2.63-2.16,1.4-2.16s1.4.97,1.4,2.16Z" style="fill: none; stroke: #6d6e71; stroke-miterlimit: 10; stroke-width: .5px;"/>
  <path d="M238.77,122.33c0,1.2-.63,2.16-1.4,2.16s-1.4-.97-1.4-2.16c0-1.2.63-2.16,1.4-2.16s1.4.97,1.4,2.16Z" style="fill: none; stroke: #6d6e71; stroke-miterlimit: 10; stroke-width: .5px;"/>
  <path d="M238.77,124.5c0,1.2-.63,2.16-1.4,2.16s-1.4-.97-1.4-2.16c0-1.2.63-2.16,1.4-2.16s1.4.97,1.4,2.16Z" style="fill: none; stroke: #6d6e71; stroke-miterlimit: 10; stroke-width: .5px;"/>
  <path d="M238.77,127.2c0,1.2-.63,2.16-1.4,2.16s-1.4-.97-1.4-2.16c0-1.2.63-2.16,1.4-2.16s1.4.97,1.4,2.16Z" style="fill: none; stroke: #6d6e71; stroke-miterlimit: 10; stroke-width: .5px;"/>
  <path d="M238.77,129.36c0,1.2-.63,2.16-1.4,2.16s-1.4-.97-1.4-2.16.63-2.16,1.4-2.16,1.4.97,1.4,2.16Z" style="fill: none; stroke: #6d6e71; stroke-miterlimit: 10; stroke-width: .5px;"/>
  <path d="M238.77,132.06c0,1.2-.63,2.16-1.4,2.16s-1.4-.97-1.4-2.16c0-1.2.63-2.16,1.4-2.16s1.4.97,1.4,2.16Z" style="fill: none; stroke: #6d6e71; stroke-miterlimit: 10; stroke-width: .5px;"/>
  <path d="M238.77,134.23c0,1.2-.63,2.16-1.4,2.16s-1.4-.97-1.4-2.16c0-1.2.63-2.16,1.4-2.16s1.4.97,1.4,2.16Z" style="fill: none; stroke: #6d6e71; stroke-miterlimit: 10; stroke-width: .5px;"/>
  <path d="M238.77,136.93c0,1.2-.63,2.16-1.4,2.16s-1.4-.97-1.4-2.16.63-2.16,1.4-2.16,1.4.97,1.4,2.16Z" style="fill: none; stroke: #6d6e71; stroke-miterlimit: 10; stroke-width: .5px;"/>
  <path d="M303.41,80.55c-13.86-3.29-18.67-3.73-42.91-2.51s-38.38,6.4-45.4,11.77c-3.65,2.79,21.85,9.15,46.06,7.89s46.71-16.09,42.24-17.15Z" style="fill: #fbb040;"/>
  <line x1="262.85" y1="0" x2="262.78" y2="25.8" style="fill: #6d6e71; stroke: #231f20; stroke-miterlimit: 10;"/>
  <path d="M262.76,23.63l-47.65,66.17s36.36-19.65,88.31-9.26l-40.65-56.91Z" style="fill: #662d91;"/>
  <circle cx="237.37" cy="140.51" r="3.08" style="fill: #6d6e71;"/>
  <line x1="227.86" y1="115.3" x2="208.35" y2="149.7" style="fill: none; opacity: .3; stroke: #fbb040; stroke-linecap: round; stroke-miterlimit: 10; stroke-width: 2px;"/>
  <line x1="265.01" y1="115.63" x2="265.48" y2="153.9" style="fill: none; opacity: .3; stroke: #fbb040; stroke-linecap: round; stroke-miterlimit: 10; stroke-width: 2px;"/>
  <line x1="300.02" y1="108.79" x2="322.71" y2="137.43" style="fill: none; opacity: .3; stroke: #fbb040; stroke-linecap: round; stroke-miterlimit: 10; stroke-width: 2px;"/>
  <line x1="38.91" y1="497.65" x2="38.98" y2="493.37" style="fill: none; stroke: #231f20; stroke-linecap: round; stroke-miterlimit: 10; stroke-width: .75px;"/>
  <line x1="42.11" y1="499.16" x2="42.19" y2="494.88" style="fill: none; stroke: #231f20; stroke-linecap: round; stroke-miterlimit: 10; stroke-width: .75px;"/>
  <line x1="45.89" y1="499.79" x2="45.97" y2="495.51" style="fill: none; stroke: #231f20; stroke-linecap: round; stroke-miterlimit: 10; stroke-width: .75px;"/>
  <line x1="213.1" y1="501.95" x2="213.18" y2="497.67" style="fill: none; stroke: #231f20; stroke-linecap: round; stroke-miterlimit: 10; stroke-width: .75px;"/>
  <line x1="162.09" y1="653.14" x2="162.19" y2="647.73" style="fill: none; stroke: #231f20; stroke-linecap: round; stroke-miterlimit: 10; stroke-width: .75px;"/>
  <line x1="109.44" y1="653.85" x2="109.54" y2="648.45" style="fill: none; stroke: #231f20; stroke-linecap: round; stroke-miterlimit: 10; stroke-width: .75px;"/>
  <line x1="101.36" y1="655.45" x2="101.46" y2="650.05" style="fill: none; stroke: #231f20; stroke-linecap: round; stroke-miterlimit: 10; stroke-width: .75px;"/>
  <line x1="94.41" y1="654.38" x2="94.51" y2="648.98" style="fill: none; stroke: #231f20; stroke-linecap: round; stroke-miterlimit: 10; stroke-width: .75px;"/>
  <line x1="169.38" y1="654.79" x2="169.48" y2="649.39" style="fill: none; stroke: #231f20; stroke-linecap: round; stroke-miterlimit: 10; stroke-width: .75px;"/>
  <line x1="175.99" y1="653.76" x2="176.09" y2="648.35" style="fill: none; stroke: #231f20; stroke-linecap: round; stroke-miterlimit: 10; stroke-width: .75px;"/>
  <line x1="216.18" y1="502.23" x2="216.26" y2="497.95" style="fill: none; stroke: #231f20; stroke-linecap: round; stroke-miterlimit: 10; stroke-width: .75px;"/>
  <line x1="218.89" y1="500.09" x2="218.96" y2="495.81" style="fill: none; stroke: #231f20; stroke-linecap: round; stroke-miterlimit: 10; stroke-width: .75px;"/>
  <circle id="HotspotVand" cx="395.85" cy="223.61" r="15.78" style="fill: #d7df23;"/>
  <circle id="HotspotMedicin" cx="385.86" cy="365.35" r="15.29" style="fill: #d7df23;"/>
  <circle id="HotspotStrom" cx="391.45" cy="506.49" r="15.29" style="fill: #d7df23;"/>
</svg>